<?xml version="1.0" encoding="utf-8"?><svg viewBox="0 0 1344 1296" xmlns="http://www.w3.org/2000/svg" xmlns:xlink="http://www.w3.org/1999/xlink"><style>:root>svg{display:none}:root>svg:target{display:block}</style><svg fill="none" viewBox="0 0 53 53" id="advantages--icon_1" xmlns="http://www.w3.org/2000/svg"><path d="M18.33 35.745c-3.395 1.96-6.191 6.77-6.18 10.694.01 3.692 2.463 5.104 5.687 3.242 3.419-1.973 6.19-6.776 6.179-10.706-.011-3.698-2.487-5.077-5.686-3.23Zm-.536 2.213c1.002-.576 1.962-.022 1.973 1.13 0 .917-.63 2.005-1.43 2.464-1.002.587-1.962.01-1.962-1.12-.01-.928.619-2.005 1.419-2.474Zm3.093 6.58a.556.556 0 0 1-.267.47l-4.543 2.623a.53.53 0 0 1-.534 0 .556.556 0 0 1-.266-.47v-.266c0-1.632 1.109-3.551 2.527-4.373 1.622-.938 3.072-.106 3.083 1.75v.266ZM20.296 17.711l1.463.848c-.006-.017-.007-.036-.013-.053-.721-2.122-.246-4.683.588-6.783.914-2.304 2.425-4.493 4.22-6.018 1.386-1.18 2.72-1.768 3.762-1.972.02-.004.04-.014.06-.017l-1.457-.848c-1.25-.725-2.813-.274-4.064.448-3.422 1.98-6.192 6.782-6.175 10.701 0 1.77.574 3.08 1.616 3.694ZM36.76 25.573c-1.714 1.74-3.062 4.116-3.657 6.46-1.29 5.09 1.244 8.119 5.359 5.74 3.415-1.97 6.184-6.772 6.172-10.702-.014-5.035-4.29-5.133-7.874-1.498Zm1.65.482c1.013-.576 1.973-.021 1.973 1.12 0 .928-.629 2.005-1.429 2.474-1.002.576-1.962.022-1.962-1.12 0-.927.618-2.015 1.418-2.474Zm3.093 6.58a.533.533 0 0 1-.267.47l-4.532 2.613a.528.528 0 0 1-.8-.459v-.266c-.01-1.632 1.098-3.563 2.527-4.384 1.611-.928 3.072-.096 3.072 1.76v.267Z" fill="#B1FE33"/><path d="M36.085 24.754c1.227-1.227 2.784-2.346 4.533-2.698.021 0 .042-.011.075-.022l-1.462-.842a2.84 2.84 0 0 0-1.44-.374c-.213 0-.426.022-.65.064l-.01-3.157a.538.538 0 0 0-.267-.458.53.53 0 0 0-.534 0l-9.29 5.364-.009-2.66a7.11 7.11 0 0 0 1.116-.518c3.418-1.973 6.19-6.773 6.178-10.7-.005-1.77-.579-3.076-1.615-3.682l-.007-.002-.023-.013-.02-.01c-1.695-.943-3.93.208-5.431 1.477-1.585 1.342-2.934 3.247-3.789 5.27-2.03 4.816-.761 8.858 2.525 8.447l.01 3.01-9.845 5.674a.533.533 0 0 0-.266.47l.01 3.562c-4 1.269-7.519 6.985-7.508 11.284 0 1.77.586 3.082 1.632 3.7l1.45.843c-.01-.021-.01-.043-.01-.053-.235-.683-.353-1.61-.363-2.293 0-4.245 3.018-9.471 6.719-11.615.587-.341 1.43-.704 2.208-.864.021 0 .042-.01.064-.01l-1.461-.854c-.48-.277-1.046-.394-1.664-.352l-.011-3.04 19.134-11.049.01 2.55a6.362 6.362 0 0 0-.906.437c-3.424 1.973-6.197 6.772-6.186 10.697.01 1.77.586 3.082 1.621 3.69l1.461.853c0-.02 0-.042-.01-.064-.406-1.205-.523-2.89.01-5.012.661-2.56 2.144-5.162 4.021-7.05ZM28.107 7.732c1.003-.576 1.963-.021 1.963 1.13.01.918-.619 2.006-1.419 2.464-1.002.576-1.962.022-1.973-1.12 0-.928.63-2.015 1.43-2.474Zm-2.517 9.204v-.266c0-1.632 1.11-3.563 2.528-4.384 1.621-.928 3.072-.085 3.072 1.76l.01.267a.556.556 0 0 1-.266.469l-4.544 2.613a.482.482 0 0 1-.267.075.535.535 0 0 1-.533-.534Z" fill="#B1FE33"/></svg><svg fill="none" viewBox="0 0 53 53" id="advantages--icon_2" xmlns="http://www.w3.org/2000/svg"><path d="m30.404 40.781.025-3.107c-.054.018-.108.03-.162.047a14.127 14.127 0 0 1-8.584.018c-.078-.025-.158-.043-.235-.07l-.024 3.093c-.01.584.423 1.16 1.218 1.623 2.916 1.672 7.73.438 7.762-1.604Z" fill="#B1FE33"/><path d="M32.353 37.73a9.516 9.516 0 0 0-.887-.45l-.003.002-.028 3.51c-.038 2.601-3.843 3.651-6.532 3.346-1.01-.115-1.978-.402-2.778-.86-2.64-1.541-1.427-3.348-1.707-5.895-.253.117-.468.23-.66.343-5.059 2.936-1.695 7.412 4.642 8.121.081.01.164.006.245.014 8.119.775 13.639-4.692 7.708-8.131Z" fill="#B1FE33"/><path d="M34.435 44.178c-2.022 2.018-5.5 2.78-8.334 2.78-3.094 0-6.964-.923-8.872-3.34l-.073 2.146c-.016 4.359 10.126 6.235 15.076 3.361 1.572-.914 2.439-2.095 2.443-3.326l.067-1.935c-.034.039-.081.073-.117.11-.063.069-.122.138-.19.205ZM23.47 17.091c4.305.48 9.492-.257 12.94-2.819.054-.04.105-.08.157-.12-4.98-3.856-14.424-4.113-19.995-.876-.466.271-.875.544-1.239.826.103.057 2.738 2.388 8.137 2.99Z" fill="#B1FE33"/><path d="M44.592 6.891a.775.775 0 0 0-1.156-.667L38.87 8.82C37.733 4.454 30.79 2.5 25.9 2.5c-5.061 0-13.058 2.3-13.032 7.358.007 1.368.71 2.59 1.684 3.565.441-.357.924-.702 1.5-1.038C21.9 8.99 31.985 9.164 37.346 13.469c.782-.779 1.37-1.661 1.59-2.748.015-.068.029-.136.04-.204v-.007c.04-.014.083-.018.122-.04l3.956-2.249.002.42c.009 2.941-1.971 6.578-4.032 9.076v-4.634c-2.553 3.738-8.478 5.161-13.027 5.163h-.008c-4.69 0-10.596-1.508-13.12-5.22v6.476L8.784 21.86a.773.773 0 0 0-.387.671l.005 1.74c.012 3.942 2.21 5.855 4.743 5.855.345 0 .703-.047 1.065-.116a12.978 12.978 0 0 0 2.498 3.52 12.967 12.967 0 0 0 9.246 3.84c1.534 0 3.358-.32 4.985-.994.072-.03.144-.058.214-.092 4.629-2.016 7.876-6.633 7.876-12V19.8a.752.752 0 0 0 .423-.218c2.572-2.77 5.161-7.229 5.15-10.947l-.01-1.743ZM11.664 28.203c-1.1-.633-1.71-2.03-1.715-3.934l-.004-1.293 2.924-1.689v2.999c0 1.478.264 2.91.734 4.266-.727.084-1.385-.03-1.939-.349Z" fill="#B1FE33"/></svg><svg fill="none" viewBox="0 0 53 53" id="advantages--icon_3" xmlns="http://www.w3.org/2000/svg"><path d="M20.152 34.378c.126.528.257 1.044.399 1.536 1.742 5.938 4.56 9.027 8.596 9.436l-.05-16.14-8.945 5.168ZM29.058 16.042c-3.343 2.039-6.774 4.636-10.261 7.779.167 3.571.54 6.75 1.113 9.491l9.184-5.306-.036-11.964Z" fill="#B1FE33"/><path d="M44.268 6.236a.433.433 0 0 0-.145-.074.436.436 0 0 0-.08-.024.677.677 0 0 0-.194-.007h-.015c-9.682 1.266-18.682 7.464-25.888 13.937-.667.6-1.336 1.214-2.007 1.851-.577.546-1.008 1.363-1.16 2.111-.177.902-.242 20.005 8.082 25.058 1.873 1.13 4.084 1.592 6.606 1.349 9.342-9.554 15.108-26.16 15.06-43.401 0-.364-.093-.654-.26-.8Zm-3.99 16.308c-.003.015-.004.03-.008.044-.155.833-.306 1.667-.49 2.491-1.944 8.641-5.29 15.963-9.679 21.176a.52.52 0 0 1-.4.186h-.01a.35.35 0 0 1-.017 0h-.008c-4.776-.189-8.18-3.632-10.117-10.236-.98-3.397-1.588-7.63-1.806-12.583a.523.523 0 0 1 .171-.41c3.909-3.54 7.755-6.42 11.431-8.559 3.956-2.289 7.815-3.777 11.532-4.466a.522.522 0 0 1 .617.523 72.73 72.73 0 0 1-1.216 11.834Z" fill="#B1FE33"/><path d="M15.224 21.157c.499-.472.996-.929 1.493-1.382 7.19-6.56 15.975-12.713 25.512-14.443.123-.022.247-.051.37-.072l-4.636-2.702a.582.582 0 0 0-.357-.05C27.115 3.876 17.339 11.053 9.7 18.295c-.74.703-1.244 1.813-1.225 2.7.206 7.93 1.395 20.562 8.297 24.573l2.166 1.257c-4.721-6.398-6.891-22.683-3.714-25.668Z" fill="#B1FE33"/><path d="m30.136 27.404 9.168-5.296a71.645 71.645 0 0 0 1.13-10.77c-3.352.703-6.825 2.077-10.335 4.083l.037 11.983ZM30.188 44.446c3.842-4.996 6.802-11.72 8.574-19.595.102-.457.18-.922.273-1.383l-8.895 5.14.048 15.838Z" fill="#B1FE33"/></svg><svg fill="none" viewBox="0 0 53 53" id="advantages--icon_4" xmlns="http://www.w3.org/2000/svg"><path d="M30.162 13.623c-6.322-3.667-16.641-3.667-23.013.01C4.153 15.356 2.5 17.631 2.5 20.025c-.01 2.765 2.174 4.95 4.569 6.332 6.321 3.677 16.65 3.677 23.023 0 2.455-1.402 4.649-3.597 4.659-6.382 0-2.374-1.623-4.629-4.589-6.352Zm-1.613 11.241c-2.515 1.453-6.031 2.295-9.668 2.295-3.617 0-7.124-.842-9.618-2.295-1.703-.982-3.467-2.605-3.467-4.588 0-1.643 1.293-3.337 3.537-4.639 5.25-3.046 14.046-3.046 19.276 0 2.204 1.282 3.467 2.956 3.467 4.599 0 2.013-1.804 3.636-3.527 4.628Z" fill="#B1FE33"/><path d="M31.848 27.34c.601-.35 1.2-.387 1.684-.104l.633.368c.395-.798.606-1.616.606-2.443l-.007-1.69c-.75 1.227-2.166 2.653-4.145 3.795-3.328 1.922-7.694 2.883-12.052 2.883-4.36 0-8.714-.962-12.022-2.884-1.925-1.12-3.303-2.511-4.038-3.692l.006 1.68c.035 7.964 17.42 12.181 27.604 6.312l.073-.046a2.01 2.01 0 0 1-.209-.931c0-1.213.82-2.64 1.867-3.248ZM9.333 18.958c5.282-3.045 14.024-3.044 19.271 0 1.01.587 1.833 1.262 2.421 1.98.07-.236.105-.47.105-.7 0-1.296-1.094-2.674-3-3.78-4.935-2.88-13.366-2.873-18.324 0-1.948 1.123-3.066 2.517-3.066 3.821 0 .237.035.474.106.71.6-.734 1.442-1.427 2.487-2.03Z" fill="#B1FE33"/><path d="M33.005 28.137c-.181-.105-.45 0-.633.105-.73.424-1.348 1.5-1.348 2.346 0 .346.105.525.194.573l2.403 1.398c.333-1.118 1.09-2.31 1.807-3.014l-2.423-1.408ZM47.93 35.315c.003-.001.335-.17.417-.204-.119-.067-4.237-2.388-4.385-2.473-1.845-1.06-5.366 4.325-3.589 5.889l4.52 2.584c-.25-2.137 1.215-4.743 3.038-5.796Z" fill="#B1FE33"/><path d="M41.962 31.935c.14-.08.279-.15.416-.21l-3.91-2.252a.975.975 0 0 0-.498-.126c-1.48.001-3.544 2.549-3.544 4.743 0 .667.2 1.15.563 1.357l3.925 2.245c-.232-2.073 1.242-4.72 3.048-5.757ZM48.458 36.22c-1.395.801-2.561 2.827-2.548 4.425 0 1.359.81 1.871 2.04 1.163 1.387-.801 2.554-2.823 2.55-4.416-.004-1.321-.775-1.9-2.042-1.171Z" fill="#B1FE33"/></svg><svg fill="none" viewBox="0 0 49 48" id="footer--ins" xmlns="http://www.w3.org/2000/svg"><ellipse cx="24.5" cy="24" rx="24.5" ry="24" fill="currentColor"/><path d="M25.828 10.584c1.453.003 2.19.011 2.827.03l.25.008c.29.01.576.024.92.039 1.375.065 2.313.282 3.135.6.853.329 1.571.773 2.29 1.49a6.34 6.34 0 0 1 1.489 2.289c.319.823.536 1.76.6 3.136.016.344.029.629.039.92l.008.25c.019.636.027 1.373.03 2.826V24.828c.004.942-.006 1.884-.03 2.826l-.007.25c-.01.291-.023.577-.039.92-.064 1.376-.284 2.313-.602 3.137a6.308 6.308 0 0 1-1.489 2.288 6.348 6.348 0 0 1-2.289 1.49c-.822.319-1.76.536-3.134.6-.307.015-.614.028-.92.04l-.25.007c-.638.018-1.375.027-2.828.03h-2.654c-.943.004-1.886-.006-2.828-.029l-.25-.008a80.67 80.67 0 0 1-.92-.04c-1.375-.064-2.312-.281-3.136-.6a6.314 6.314 0 0 1-2.288-1.49 6.335 6.335 0 0 1-1.49-2.288c-.32-.823-.537-1.761-.601-3.137a97.201 97.201 0 0 1-.039-.92l-.006-.25c-.024-.942-.035-1.884-.033-2.826v-2.656c-.003-.942.006-1.884.029-2.826l.009-.25c.01-.291.023-.576.038-.92.065-1.376.282-2.312.601-3.136a6.305 6.305 0 0 1 1.493-2.29 6.326 6.326 0 0 1 2.287-1.488c.824-.32 1.76-.536 3.136-.601.343-.015.63-.028.92-.039l.25-.008a101.63 101.63 0 0 1 2.826-.03h2.656ZM24.5 17.041a6.459 6.459 0 1 0 0 12.917 6.459 6.459 0 0 0 0-12.917Zm0 2.583a3.874 3.874 0 1 1 0 7.749 3.874 3.874 0 0 1 .001-7.749m6.781-4.52a1.615 1.615 0 1 0 0 3.229 1.615 1.615 0 0 0 0-3.23Z" fill="#172224"/></svg><svg fill="none" viewBox="0 0 48 48" id="footer--tg" xmlns="http://www.w3.org/2000/svg"><path d="M23.75 0C10.64 0 0 10.64 0 23.75S10.64 47.5 23.75 47.5 47.5 36.86 47.5 23.75 36.86 0 23.75 0Zm11.02 16.15c-.356 3.753-1.9 12.873-2.684 17.076-.332 1.782-.997 2.375-1.615 2.447-1.377.118-2.422-.903-3.752-1.782-2.09-1.377-3.278-2.232-5.297-3.562-2.35-1.544-.83-2.399.523-3.777.356-.356 6.436-5.89 6.555-6.388a.475.475 0 0 0-.119-.428c-.142-.119-.332-.071-.498-.047-.214.047-3.54 2.256-10.023 6.626-.95.641-1.805.974-2.565.95-.855-.024-2.47-.475-3.681-.879-1.497-.475-2.66-.736-2.565-1.567.047-.428.641-.855 1.757-1.306 6.935-3.017 11.543-5.012 13.847-5.962 6.602-2.755 7.956-3.23 8.858-3.23.19 0 .642.048.926.285.238.19.31.451.333.642-.024.142.024.57 0 .902Z" fill="currentColor"/></svg><svg fill="none" viewBox="0 0 48 47" id="footer--vk" xmlns="http://www.w3.org/2000/svg"><path d="M23.52 0C10.53 0 0 10.315 0 23.04s10.53 23.04 23.52 23.04 23.52-10.315 23.52-23.04S36.51 0 23.52 0Zm9.045 25.994s2.08 2.012 2.593 2.945c.014.02.022.039.026.048.209.343.258.61.155.809-.172.331-.76.494-.96.509h-3.676c-.254 0-.788-.065-1.435-.502-.498-.34-.988-.9-1.465-1.445-.713-.81-1.33-1.512-1.953-1.512a.762.762 0 0 0-.233.036c-.47.15-1.073.807-1.073 2.559 0 .547-.44.861-.752.861h-1.683c-.574 0-3.56-.196-6.206-2.93-3.239-3.348-6.154-10.063-6.179-10.126-.184-.434.196-.667.61-.667h3.712c.495 0 .657.295.77.557.131.305.616 1.517 1.413 2.88 1.29 2.222 2.082 3.125 2.717 3.125a.747.747 0 0 0 .34-.087c.828-.45.674-3.343.637-3.943 0-.113-.002-1.293-.426-1.86-.304-.41-.82-.566-1.134-.624a1.34 1.34 0 0 1 .487-.405c.569-.279 1.593-.32 2.61-.32h.566c1.102.015 1.386.084 1.786.183.808.19.825.7.754 2.45a37.316 37.316 0 0 0-.044 1.721c0 .144-.007.298-.007.46-.025.891-.054 1.902.588 2.317.083.051.18.079.279.079.223 0 .894 0 2.712-3.055a23.115 23.115 0 0 0 1.458-3.058c.037-.062.145-.254.272-.329a.662.662 0 0 1 .304-.07h4.363c.475 0 .801.07.862.25.108.286-.02 1.157-2.01 3.8l-.89 1.15c-1.806 2.318-1.806 2.435.112 4.194Z" fill="currentColor"/></svg><svg fill="none" viewBox="0 0 49 48" id="footer--wa" xmlns="http://www.w3.org/2000/svg"><ellipse cx="24.5" cy="24" rx="24.5" ry="24" fill="currentColor"/><path d="M24.001 10.666c7.364 0 13.334 5.97 13.334 13.334S31.365 37.333 24 37.333a13.272 13.272 0 0 1-6.706-1.806l-6.622 1.806 1.803-6.624A13.27 13.27 0 0 1 10.668 24c0-7.363 5.97-13.332 13.333-13.332Zm-4.544 7.067-.266.01c-.173.011-.342.057-.496.134a1.722 1.722 0 0 0-.392.304c-.16.15-.251.281-.348.408a3.64 3.64 0 0 0-.755 2.238c.003.653.173 1.289.44 1.883.545 1.203 1.443 2.476 2.627 3.656.285.285.565.57.866.835a12.597 12.597 0 0 0 5.12 2.728l.758.116c.246.013.493-.005.741-.017.388-.02.768-.125 1.11-.308a6.42 6.42 0 0 0 .511-.293s.058-.038.167-.12c.18-.134.29-.229.44-.384.11-.115.207-.25.28-.403.104-.218.208-.632.25-.977.033-.264.023-.409.02-.498-.006-.143-.125-.29-.254-.353l-.776-.348s-1.16-.506-1.87-.828a.663.663 0 0 0-.234-.055.642.642 0 0 0-.504.17c-.007-.003-.096.073-1.06 1.24a.466.466 0 0 1-.49.174 1.91 1.91 0 0 1-.255-.088c-.166-.07-.223-.096-.336-.144a8.033 8.033 0 0 1-2.1-1.337c-.168-.147-.324-.307-.484-.461a8.396 8.396 0 0 1-1.36-1.691l-.079-.127a1.23 1.23 0 0 1-.136-.273c-.05-.196.081-.354.081-.354s.324-.354.475-.546c.147-.187.27-.368.35-.498.158-.253.207-.513.125-.714-.374-.912-.76-1.82-1.158-2.722-.078-.178-.312-.306-.524-.331a5.845 5.845 0 0 0-.216-.022 4.522 4.522 0 0 0-.537.006l.27-.01Z" fill="#172224"/></svg><svg fill="none" viewBox="0 0 49 48" id="footer--yt" xmlns="http://www.w3.org/2000/svg"><ellipse cx="24.5" cy="24" rx="24.5" ry="24" fill="currentColor"/><path d="M39.37 17.495a3.606 3.606 0 0 0-.964-1.592 3.786 3.786 0 0 0-1.649-.928c-2.339-.604-11.742-.604-11.742-.604s-9.385-.015-11.749.604a3.786 3.786 0 0 0-1.645.93c-.457.441-.788.989-.962 1.59a36.453 36.453 0 0 0-.653 7.02 36.948 36.948 0 0 0 .653 6.985 3.62 3.62 0 0 0 .962 1.592 3.801 3.801 0 0 0 1.645.933c2.34.605 11.749.605 11.749.605s9.38 0 11.742-.605a3.802 3.802 0 0 0 1.649-.932 3.62 3.62 0 0 0 .964-1.593c.43-2.303.64-4.645.625-6.986a36.73 36.73 0 0 0-.625-7.019ZM22.011 28.852v-8.695l7.828 4.357-7.828 4.338Z" fill="#172224"/></svg><svg fill="none" viewBox="0 0 32 32" id="icons--arrow_btn" xmlns="http://www.w3.org/2000/svg"><path d="M5.333 14.667v2.666h16V20H24v-2.667h2.667v-2.666H24V12h-2.666v2.667h-16Zm13.334-5.334h2.666V12h-2.666V9.333Zm0 0H16V6.667h2.667v2.666Zm0 13.334h2.666V20h-2.666v2.667Zm0 0H16v2.666h2.667v-2.666Z" fill="currentColor"/></svg><svg fill="none" viewBox="0 0 1344 1296" id="icons--bg" xmlns="http://www.w3.org/2000/svg"><g filter="url(#ka)"><ellipse cx="851.089" cy="442.325" rx="313.131" ry="347.04" transform="rotate(-43.255 851.089 442.325)" fill="#D4FF00" fill-opacity=".3"/></g><defs><filter id="ka" x="0" y="-410.831" width="1702.18" height="1706.31" filterUnits="userSpaceOnUse" color-interpolation-filters="sRGB"><feFlood flood-opacity="0" result="BackgroundImageFix"/><feBlend in="SourceGraphic" in2="BackgroundImageFix" result="shape"/><feGaussianBlur stdDeviation="260.8" result="effect1_foregroundBlur_2063_1671"/></filter></defs></svg><svg fill="none" viewBox="0 0 87 87" id="icons--hero_icon" xmlns="http://www.w3.org/2000/svg"><path d="M48.333 0h-9.666v9.667h9.666V0Zm19.334 9.667h9.666v9.666h-9.666V9.667Zm-29 29h9.666v9.666h-9.666v-9.666ZM0 38.667h9.667v9.666H0v-9.666Zm87 0h-9.667v9.666H87v-9.666Zm-77.333-29h9.666v9.666H9.667V9.667Zm67.666 67.666h-9.666v-9.666h9.666v9.666ZM38.667 87h9.666v-9.667h-9.666V87Zm-19.334-9.667H9.667v-9.666h9.666v9.666Zm9.667-58h29V29H29v-9.667ZM29 58h-9.667V29H29v29Zm0 0v9.667h29V58h9.667V29H58v29H29Z" fill="#E3FB1E"/></svg><svg fill="none" viewBox="0 0 48 48" id="icons--logo" xmlns="http://www.w3.org/2000/svg"><path d="M24 37.5a10.485 10.485 0 0 1-8.75-4.694l2.5-1.66a7.5 7.5 0 0 0 12.5 0l2.5 1.66A10.484 10.484 0 0 1 24 37.5ZM30 21a3 3 0 1 0 3 3 2.969 2.969 0 0 0-3-3Zm-12 0a3 3 0 1 0 3 3 2.969 2.969 0 0 0-3-3Z" fill="#D4FF00"/><path d="M45 24v-3h-3v-6a6.007 6.007 0 0 0-6-6h-3V3h-3v6H18V3h-3v6h-3a6.007 6.007 0 0 0-6 6v6H3v3h3v7.5H3v3h3V39a6.007 6.007 0 0 0 6 6h24a6.007 6.007 0 0 0 6-6v-4.5h3v-3h-3V24h3Zm-6 15a3.003 3.003 0 0 1-3 3H12a3.003 3.003 0 0 1-3-3V15a3.003 3.003 0 0 1 3-3h24a3.003 3.003 0 0 1 3 3v24Z" fill="#D4FF00"/></svg><svg fill="none" viewBox="0 0 38 38" id="icons--phone" xmlns="http://www.w3.org/2000/svg"><path d="M7.473 4.222c.127 1.88.444 3.716.95 5.468L5.89 12.223a31.298 31.298 0 0 1-1.604-8h3.187ZM28.29 29.598c1.794.506 3.631.823 5.489.95v3.145a32.568 32.568 0 0 1-8.022-1.583l2.533-2.512ZM9.5 0H2.111C.95 0 0 .95 0 2.111 0 21.934 16.066 38 35.889 38 37.05 38 38 37.05 38 35.889V28.52c0-1.161-.95-2.111-2.111-2.111-2.618 0-5.172-.422-7.537-1.203a1.773 1.773 0 0 0-.654-.106c-.55 0-1.077.211-1.5.612l-4.644 4.645A31.981 31.981 0 0 1 7.642 16.446l4.645-4.645c.59-.591.76-1.414.527-2.153a23.983 23.983 0 0 1-1.203-7.537C11.611.95 10.661 0 9.5 0Z" fill="currentColor"/></svg><svg fill="none" viewBox="0 0 20 18" id="materials--icon_like" xmlns="http://www.w3.org/2000/svg"><path d="M13.528.959c2.462-.716 4.5.528 5.174 1.91v.001c.947 1.934.698 4.164-1.014 6.735l-.362.519v.002c-1.605 2.215-3.921 4.448-7.323 7.09-3.19-2.48-5.422-4.614-7.012-6.678l-.312-.415C.639 7.332.287 4.933 1.297 2.87 1.973 1.49 4.002.252 6.474.958V.96a5.42 5.42 0 0 1 2.916 2.064l.611.86.611-.86A5.419 5.419 0 0 1 13.526.96l.002-.001Z" stroke="#fff" stroke-width="1.5"/></svg><svg fill="none" viewBox="0 0 24 24" id="materials--icon_views" xmlns="http://www.w3.org/2000/svg"><path d="M3.275 15.296C2.425 14.192 2 13.639 2 12c0-1.64.425-2.191 1.275-3.296C4.972 6.5 7.818 4 12 4c4.182 0 7.028 2.5 8.725 4.704C21.575 9.81 22 10.361 22 12c0 1.64-.425 2.191-1.275 3.296C19.028 17.5 16.182 20 12 20c-4.182 0-7.028-2.5-8.725-4.704Z" stroke="#fff" stroke-width="1.5"/><path d="M15 12a3 3 0 1 1-6 0 3 3 0 0 1 6 0Z" stroke="#fff" stroke-width="1.5"/></svg><svg fill="none" viewBox="0 0 42 42" id="request--icon" xmlns="http://www.w3.org/2000/svg"><path d="M23.333 0h-4.666v4.667h4.666V0Zm9.334 4.667h4.666v4.666h-4.666V4.667Zm-14 14h4.666v4.666h-4.666v-4.666ZM0 18.667h4.667v4.666H0v-4.666Zm42 0h-4.667v4.666H42v-4.666Zm-37.333-14h4.666v4.666H4.667V4.667Zm32.666 32.666h-4.666v-4.666h4.666v4.666ZM18.667 42h4.666v-4.667h-4.666V42Zm-9.334-4.667H4.667v-4.666h4.666v4.666Zm4.667-28h14V14H14V9.333ZM14 28H9.333V14H14v14Zm0 0v4.667h14V28h4.667V14H28v14H14Z" fill="#667341"/></svg><svg fill="none" viewBox="0 0 48 41" id="stages--icon_1" xmlns="http://www.w3.org/2000/svg"><path d="m7.092 19.106 22.688-13.1-4.553-2.648c-.163-.092-.432-.047-.731.125L2.28 16.312l4.812 2.794ZM4.18 22.7 0 20.271l.039 14.487c.005.343.099.595.257.685l4.555 2.652-.04-15.028-.631-.367ZM6.159 19.773l-4.905-2.847C.63 17.41.122 18.29.018 19.072l4.9 2.85c.2-.796.715-1.638 1.24-2.15ZM26.217 18.12c.043.159.106.319.173.478l10.684-10.64a6.212 6.212 0 0 1-.489-1.391L26.413 16.639c-.366.352-.32.994-.196 1.481ZM39.164 10.384a6.575 6.575 0 0 1-1.53-1.51L26.924 19.54c.394.56.913 1.092 1.518 1.516l10.722-10.673ZM28.903 22.522c-1.454-.623-2.8-1.995-3.424-3.388l-.015-.029-.004-.008-1.162 2.817 1.596 1.76 3.01-1.152ZM14.142 40.547l.097-.426L15.404 35 9.99 38.132l4.15 2.415ZM23.137 24.73l1.711-.655-.99-1.093-.721 1.749ZM38.795 4.413a.67.67 0 0 0-.008-.03l-1.29 1.28c.223 2.49 2.207 4.537 4.886 4.886l1.326-1.308c-2.074-.486-4.312-2.605-4.914-4.828Z" fill="#000"/><path d="m45.72 7.134-.01-.002c-2.126-.564-4.242-2.673-4.814-4.806a4.301 4.301 0 0 1-.122-.634l-.734.73c-.411.408-.382 1.162-.233 1.718.53 1.978 2.862 4.109 4.737 4.16.43.012.787-.088 1.021-.32l.739-.733c-.012-.002-.024-.006-.035-.007a4.254 4.254 0 0 1-.549-.106Z" fill="#000"/><path d="M47.894 4.18c-.477-1.778-2.3-3.606-4.066-4.074-1.592-.42-2.324.452-1.924 1.95.467 1.743 2.333 3.606 4.074 4.067 1.575.417 2.32-.43 1.916-1.943ZM40.085 10.939 29.391 21.584c.323.132.557.213.907.241.34.027.755-.042.994-.28l10.185-10.098a8.401 8.401 0 0 1-1.392-.508Z" fill="#000"/><path d="m31.116 22.79-8.719 3.341-13.795 7.933a.522.522 0 0 1-.52-.905l13.701-7.879 3.316-8.04c.037-.56.259-1.034.585-1.348l5.663-5.602-.01-2.839c0-.747-.392-.902-.988-.563L7.356 20.164c-.83.471-1.496 1.692-1.502 2.579 0 .108.039 15.315.041 15.417 0 .621.304.953.994.56 1.822-1.05 8.852-5.133 9.056-5.225.418-.204.825.185.738.588l-1.04 4.57 5.198-7.915a.52.52 0 0 1 .175-.166l8.87-5.124c.818-.47 1.502-1.656 1.493-2.59v-.151c-.01.004-.023.005-.033.008-.07.028-.145.053-.23.076Zm-23.034.808 15.388-8.882a.522.522 0 0 1 .521.904L8.603 24.502a.522.522 0 0 1-.521-.904Zm0 4.78 9.76-5.633a.522.522 0 1 1 .522.904l-9.76 5.633a.522.522 0 0 1-.522-.904Z" fill="#000"/></svg><svg fill="none" viewBox="0 0 53 53" id="stages--icon_2" xmlns="http://www.w3.org/2000/svg"><path d="M43.257 6.19 15.489 22.22l.018 6.36L43.274 12.55l-.017-6.36Zm-15.69 13.015-9.593 5.531a.527.527 0 1 1-.526-.912l9.594-5.531a.526.526 0 1 1 .526.912Zm3.403-.933c-.93.532-1.755-.003-1.755-1.004-.009-.838.567-1.834 1.31-2.262.867-.513 1.746-.058 1.746.996.01.847-.567 1.842-1.3 2.27Zm4.889-2.823c-.938.536-1.755-.016-1.755-.996-.009-.847.567-1.842 1.31-2.27.906-.518 1.746-.03 1.746 1.004.009.838-.568 1.834-1.301 2.262Zm4.879-2.824c-.869.515-1.755.044-1.755-.995 0-.847.576-1.842 1.31-2.27.911-.51 1.754-.031 1.754 1.004.01.838-.567 1.833-1.31 2.261ZM37.953 2.5 10.185 18.532l4.776 2.776L42.73 5.276 37.953 2.5ZM9.663 19.448l.08 28.3 4.712 2.745-.02-28.273-4.772-2.772ZM43.278 13.764 15.509 29.797V50.5l27.828-16.006-.06-20.73ZM25.325 41.506l-6.883 3.974a.527.527 0 0 1-.527-.913l6.883-3.973a.526.526 0 1 1 .527.912Zm0-3.196-6.883 3.974a.527.527 0 0 1-.527-.913l6.883-3.974a.526.526 0 1 1 .527.913Zm-.008-3.496-6.901 3.94c-.379.19-.79-.064-.79-.463l.02-6.058a.57.57 0 0 1 .264-.453l6.87-3.962a.523.523 0 0 1 .526 0 .531.531 0 0 1 .264.453l.02 6.09a.52.52 0 0 1-.273.453Zm11.653-3.108-2.992 2.118-.327 3.635a.526.526 0 0 1-.432.474c-.032 0-.063.01-.095.01-.2 0-.39-.116-.474-.295l-2.76-5.658a.526.526 0 0 1 .02-.484.502.502 0 0 1 .422-.264l6.29-.495a.53.53 0 0 1 .348.959Zm3.986-8.814-13.737 7.932a.527.527 0 0 1-.527-.913l13.737-7.931a.527.527 0 1 1 .527.912Zm0-3.196-13.737 7.931a.527.527 0 0 1-.527-.912l13.737-7.932a.526.526 0 1 1 .527.913Z" fill="#000"/></svg><svg fill="none" viewBox="0 0 53 53" id="stages--icon_3" xmlns="http://www.w3.org/2000/svg"><path d="m15.715 6.331-.021.011c-5.423 3.13-10 10.867-9.983 17.278.007 2.379.688 4.96 2.75 6.146 1.773 1.02 4.172.764 6.752-.725 5.518-3.186 9.992-10.944 9.974-17.294-.017-6.128-4.205-8.446-9.472-5.416Zm-.57 4.758c1.346-.777 2.601-.062 2.606 1.49.003 1.32-.896 2.875-2.047 3.54-1.339.773-2.595.06-2.6-1.487-.003-1.324.893-2.88 2.041-3.543Zm4.312 8.975a.53.53 0 0 1-.274.47l-6.922 4.01c-.373.186-.822-.035-.822-.482v-.405c-.01-2.41 1.632-5.247 3.724-6.452 2.308-1.348 4.294-.144 4.294 2.454v.405Z" fill="#000"/><path d="M4.612 23.622C4.597 16.917 9.334 8.75 15.147 5.392c1.511-.872 3.15-1.36 4.264-1.455.018-.002.037-.007.055-.008l-1.407-.801c-1.781-1.037-4.182-.783-6.765.71-5.333 3.068-10 10.79-9.987 17.278.013 2.937.984 5.118 2.734 6.14l1.5.853c-.012-.023-.02-.05-.031-.074-.62-1.3-.892-2.988-.898-4.413ZM42.2 26.462c-5.489 3.169-10 10.916-9.983 17.278.007 2.395.683 4.957 2.75 6.146 1.773 1.02 4.171.764 6.752-.726 5.518-3.185 9.992-10.943 9.974-17.294-.017-6-4.081-8.534-9.493-5.404Zm-.551 4.753c1.43-.8 2.607-.002 2.607 1.478 0 1.326-.898 2.881-2.049 3.55-1.306.752-2.596.088-2.596-1.49 0-1.326.888-2.881 2.038-3.538Zm4.315 8.97a.53.53 0 0 1-.273.471l-6.923 3.998a.525.525 0 0 1-.548 0 .517.517 0 0 1-.273-.47v-.406c-.011-2.41 1.62-5.246 3.724-6.462 2.384-1.356 4.293-.065 4.293 2.453v.416Z" fill="#000"/><path d="M31.118 43.742c-.015-6.753 4.793-14.914 10.534-18.23 1.573-.908 3.075-1.353 4.265-1.456.018-.001.037-.006.055-.008l-1.407-.8c-.721-.42-1.544-.628-2.44-.628-6.564 0-14.33 10.226-14.312 18.615.012 2.938.984 5.12 2.734 6.14l1.5.853c-.012-.023-.02-.05-.03-.072-.604-1.266-.893-2.995-.9-4.414ZM29.764 6.66c7.095 1.657 7.705 6.807 7.758 11.026l-1.837-1.56a.548.548 0 0 0-.71.835l2.77 2.352c.248.21.624.159.807-.109l1.9-2.78a.547.547 0 1 0-.904-.618l-.94 1.374c-.105-4.341-1.002-9.814-8.595-11.586a.547.547 0 1 0-.25 1.066ZM23.237 46.34c-6.995-1.634-7.687-6.662-7.755-10.847l1.413 1.46a.547.547 0 1 0 .787-.762l-2.388-2.466a.546.546 0 0 0-.845.072l-1.9 2.78a.547.547 0 1 0 .903.618l.94-1.375c.106 4.341 1.003 9.813 8.596 11.586a.547.547 0 1 0 .25-1.066Z" fill="#000"/></svg><svg fill="none" viewBox="0 0 53 53" id="stages--icon_4" xmlns="http://www.w3.org/2000/svg"><path d="M29.37 2.5 8.06 14.805l3.913 2.274L33.285 4.774 29.37 2.5ZM12.5 17.991l.092 32.509 14.938-8.624-.02-6.954a.526.526 0 0 1 .264-.458l6.109-3.527-.071-25.25-21.313 12.304Zm13.096 22.196-9.68 5.588a.526.526 0 1 1-.526-.912l9.679-5.588a.526.526 0 1 1 .527.912Zm0-6.133-9.68 5.588a.526.526 0 1 1-.526-.912l9.679-5.588a.526.526 0 1 1 .527.912Zm6.014-9.604-15.693 9.06a.526.526 0 1 1-.527-.913l15.693-9.06a.526.526 0 1 1 .527.913Zm0-6.132L15.72 27.49a.526.526 0 1 1-.527-.913l15.89-9.173a.526.526 0 1 1 .527.913Zm0-6.133-15.89 9.173a.526.526 0 1 1-.527-.912l15.89-9.174a.526.526 0 1 1 .527.913Z" fill="#000"/><path d="m28.58 40.233 4.383-7.548-4.398 2.539.015 5.009ZM11.446 17.991l-3.909-2.27.093 32.503 3.908 2.27-.092-32.503ZM38.614 8.983c1.576.911 4.237.91 5.811-.004 1.403-.817 1.37-1.954-.02-2.756-1.606-.928-4.214-.934-5.81-.006-1.428.83-1.351 1.977.019 2.766ZM41.4 38.565l.804-1.8H40.65l.75 1.8ZM39.379 16.633a6.256 6.256 0 0 1-1.345-.637l-.075 14.455c0 .65.74 1.153 1.388 1.416l.032-15.234ZM38.076 12.88c-.009-.004-.018-.01-.026-.015l-.01 1.828c1.955 1.641 4.873 1.64 6.981.005l.01-1.873-.09.052c-1.925 1.115-4.94 1.118-6.865.004Z" fill="#000"/><path d="M38.087 9.895a4.474 4.474 0 0 1-.541-.366l-.004 1.046c0 .583.55 1.098 1.061 1.393.987.57 2.396.783 3.697.64 1.191-.133 3.154-.823 3.156-2.01l.004-1.05c-.153.12-.322.235-.506.341-1.923 1.119-4.94 1.12-6.867.006ZM43.625 31.853c.595-.25 1.323-.74 1.323-1.376l.068-14.494c-.436.264-.89.477-1.36.637l-.031 15.233ZM42.602 16.893a6.261 6.261 0 0 1-2.17.005l-.033 15.26a5.83 5.83 0 0 0 2.171-.003l.032-15.262ZM39.043 32.888l-.01-.003 1.178 2.827h2.464l1.269-2.84c-.007.003-.016.003-.023.006-1.62.64-3.568.518-4.878.01Z" fill="#000"/></svg><svg fill="none" viewBox="0 0 30 48" id="stages--icon_5" xmlns="http://www.w3.org/2000/svg"><g clip-path="url(#va)"><path d="M7.06 6.74c1.31-.77 3.21-.09 3.23.51 0 .68-2.08 1.17-3.22.51-.6-.35-.53-.71 0-1.01l-.01-.01Zm-.43 1.97c1.01.54 2.61.55 3.65 0 0 .09 0 3.02-.06 32.44 0 .08-.04.17-.11.25-.77.91-3.49.6-3.53-.26 0-3.32-.02 12.01.06-32.43h-.01ZM7.93 48 0 43.42v-2.19c.11.06 8.45 4.88 7.93 4.58V48Zm8.92-4.58L8.98 48v-2.19c.11-.06 8.4-4.88 7.88-4.57v2.19l-.01-.01Zm-.52-3.1c-.11.06-8.4 4.88-7.88 4.58-.11-.06-8.46-4.88-7.93-4.58l5-2.9v3.72c0 1.76 3.09 2.42 4.8 1.43.68-.4.94-.93.95-1.41v-3.75l5.06 2.92v-.01Zm-5-29.84c.1-.05.2-.11.3-.16 2.01-1.16 4.03-3.04 5.8-4.7 1.69-1.55 3.73-3.47 5.63-4.56 1.4-.81 2.63-1.15 3.77-1.04l1.58.92h-.03c-.82.17-1.68.49-2.64 1.06-3.88 2.24-7.66 7.08-11.44 9.27-.89.52-1.93.95-2.96 1.02v-1.81h-.01Zm8.63 12.68c-2.36 2.19-5.66 5.41-8.66 5.6l.03-15.4c.93-.06 2.15-.4 3.49-1.18 2-1.15 3.94-2.95 5.82-4.71 1.85-1.71 3.76-3.49 5.62-4.56 1.01-.59 2.19-1.05 3.36-1.05h.03l.05 15.4c-3.56 0-6.94 3.29-9.75 5.9h.01Z" fill="#000"/></g><defs><clipPath id="va"><path fill="#fff" d="M0 0h29.71v48H0z"/></clipPath></defs></svg></svg>